Coordinates
version=1
nRows=13
nColumns=40
inDegrees=yes

Units are S.I. units (second, meters, Newtons, ...)
Angles are in degrees.

endheader
time	pelvis_tilt	pelvis_list	pelvis_rotation	pelvis_tx	pelvis_ty	pelvis_tz	hip_flexion_r	hip_adduction_r	hip_rotation_r	knee_angle_r	knee_angle_r_beta	ankle_angle_r	subtalar_angle_r	mtp_angle_r	hip_flexion_l	hip_adduction_l	hip_rotation_l	knee_angle_l	knee_angle_l_beta	ankle_angle_l	subtalar_angle_l	mtp_angle_l	lumbar_extension	lumbar_bending	lumbar_rotation	arm_flex_r	arm_add_r	arm_rot_r	elbow_flex_r	pro_sup_r	wrist_flex_r	wrist_dev_r	arm_flex_l	arm_add_l	arm_rot_l	elbow_flex_l	pro_sup_l	wrist_flex_l	wrist_dev_l
     26.40242857	     -4.92347966	     -3.92842144	     -4.36888022	      0.88276289	      0.92636210	      0.46218968	     26.25957002	      0.53956917	    -14.38038869	     14.17000126	     14.17000126	      3.78101067	      2.86522026	      6.79005489	      1.49592079	     -3.50744263	    -11.42924853	     12.94358174	     12.94358174	     16.62508038	     -9.03186916	     -3.07197647	     -9.06385450	      6.94686261	      2.91485943	    -13.07600222	    -11.08995171	    -10.17394430	     23.31828065	     46.57402667	      0.00000000	      0.00000000	     24.00407218	    -15.47278497	     -9.74565285	     78.87374943	     47.68020789	      0.00000000	      0.00000000
     26.41485714	     -4.96603908	     -4.01180610	     -4.45240805	      0.88369717	      0.92515700	      0.46439936	     25.76317499	      0.79129622	    -14.55493535	     14.52192556	     14.52192556	      3.87095152	      2.60578703	      6.59759645	      0.91868502	     -3.69514782	    -11.42811447	     12.95703905	     12.95703905	     17.09015155	     -9.09472117	     -3.11193148	     -8.72985189	      6.97745959	      2.94115057	    -13.00909417	    -11.04820058	    -10.17007562	     23.37253590	     46.57216149	      0.00000000	      0.00000000	     23.76845962	    -15.35564895	     -9.71188805	     78.88789263	     47.67764361	      0.00000000	      0.00000000
     26.42728571	     -4.81933533	     -4.23661696	     -4.48511365	      0.88487468	      0.92416172	      0.46667964	     25.17797133	      1.12180601	    -14.58487820	     15.28168045	     15.28168045	      4.01951004	      2.15073561	      6.16404938	      0.13950837	     -4.03987211	    -11.40406737	     13.03218344	     13.03218344	     17.59092372	     -9.12690227	     -3.04456617	     -8.61270320	      7.24397733	      2.98785403	    -12.79292609	    -11.03885610	    -10.16332248	     23.47855992	     46.56958633	      0.00000000	      0.00000000	     23.29326995	    -15.14246845	     -9.63168758	     78.83094758	     47.66963706	      0.00000000	      0.00000000
     26.43971429	     -4.61313507	     -4.29052307	     -4.52367868	      0.88608451	      0.92312191	      0.46926351	     24.48883587	      1.49760621	    -13.53837304	     15.74617974	     15.74617974	      2.26126375	     -0.27662823	      0.68998660	     -0.37321566	     -4.37117586	    -11.94356587	     13.90387083	     13.90387083	     19.82722274	     -7.69498802	      0.37336485	     -8.61763408	      7.23953405	      2.57645413	    -12.21938879	    -11.13598715	     -9.92526351	     23.74939085	     46.55676453	      0.00000000	      0.00000000	     22.35606058	    -15.43894052	     -9.98834282	     79.70153605	     47.73429146	      0.00000000	      0.00000000
     26.45214286	     -4.55228720	     -4.48256140	     -4.56226165	      0.88733248	      0.92222806	      0.47182034	     23.94721782	      1.81869615	    -13.46263175	     16.40020533	     16.40020533	      2.52849768	     -0.40525490	      0.39871170	     -0.98118419	     -4.71684907	    -11.87471347	     14.11474868	     14.11474868	     20.16633741	     -7.90960045	      0.33510136	     -8.36296729	      7.39699147	      2.71369758	    -11.80655582	    -11.07186793	     -9.89397884	     23.87719957	     46.55286901	      0.00000000	      0.00000000	     21.82986991	    -15.11140571	     -9.84412622	     79.45986239	     47.71798263	      0.00000000	      0.00000000
     26.46457143	     -4.37657362	     -4.62586709	     -4.55023739	      0.88836138	      0.92140160	      0.47438831	     23.67077336	      2.04585776	    -13.09369840	     17.66120889	     17.66120889	      2.78663767	     -1.33234946	     -0.34852666	     -1.37984264	     -5.07338119	    -11.72349812	     14.92200227	     14.92200227	     20.61280095	     -8.32428589	      0.58075304	     -8.32899129	      7.49151093	      2.65144200	    -11.14939374	    -11.15953862	     -9.81468653	     23.97277439	     46.55125518	      0.00000000	      0.00000000	     21.35592391	    -15.06478432	     -9.75645698	     78.83862728	     47.70281923	      0.00000000	      0.00000000
     26.47700000	     -4.16188698	     -4.85046465	     -4.55028183	      0.88953736	      0.92104957	      0.47698470	     23.10734616	      2.41110775	    -12.73943787	     18.39844174	     18.39844174	      3.16273833	     -1.84171364	     -0.81310967	     -1.80029845	     -5.52006665	    -11.55716589	     15.78936573	     15.78936573	     20.89701653	     -8.79730708	      0.68173821	     -8.33228708	      7.78224356	      2.76460423	    -10.42269175	    -11.18286249	     -9.75555360	     24.13682022	     46.54762714	      0.00000000	      0.00000000	     20.63464800	    -14.71584536	     -9.56802979	     78.33949828	     47.67906327	      0.00000000	      0.00000000
     26.48942857	     -4.18775834	     -5.06137127	     -4.48763042	      0.89027968	      0.92051298	      0.47980868	     22.86399913	      2.85370691	    -12.10219398	     19.06950281	     19.06950281	      3.44931263	     -3.00320189	     -1.45459728	     -1.51603446	     -6.08495260	    -11.20345723	     17.42018416	     17.42018416	     21.27041824	     -9.52855435	      0.96463123	     -8.06980330	      7.91971023	      2.64038882	     -9.44734159	    -11.14467114	     -9.60468096	     24.21764462	     46.54423104	      0.00000000	      0.00000000	     19.98591966	    -14.57804390	     -9.42954849	     77.42187178	     47.65528570	      0.00000000	      0.00000000
     26.50185714	     -4.04061873	     -5.28709771	     -4.43022335	      0.89106729	      0.92058488	      0.48264550	     22.35917278	      3.31113814	    -11.53473023	     19.53696971	     19.53696971	      3.71899304	     -4.02287486	     -2.17869177	     -1.31016734	     -6.67865419	    -10.90442129	     19.24991166	     19.24991166	     21.47566775	    -10.24964970	      1.31150568	     -8.03037149	      8.11166896	      2.64186925	     -8.32744964	    -11.16143701	     -9.32931875	     24.13066870	     46.54242992	      0.00000000	      0.00000000	     19.30361326	    -14.26624389	     -9.30038341	     76.30945977	     47.63305988	      0.00000000	      0.00000000
     26.51428571	     -3.73742798	     -5.52224907	     -4.33649917	      0.89177609	      0.92113970	      0.48545382	     21.64547642	      3.68979487	    -11.36748757	     19.92360039	     19.92360039	      4.29818304	     -4.30295486	     -2.50751659	     -1.06323010	     -7.31382739	    -10.57295692	     21.40444617	     21.40444617	     21.24979702	    -11.19096530	      1.07886393	     -8.26568612	      8.26657319	      2.73859227	     -7.23689703	    -11.19094484	     -9.25855991	     24.45892002	     46.53425444	      0.00000000	      0.00000000	     18.57238687	    -13.92170035	     -9.11354880	     75.60388386	     47.60579103	      0.00000000	      0.00000000
     26.52671429	     -3.74420568	     -5.74321927	     -4.15201048	      0.89213888	      0.92146227	      0.48820630	     21.20514742	      4.09106429	    -11.19165736	     20.10020233	     20.10020233	      4.78809121	     -4.81151676	     -2.73753381	     -0.03032195	     -8.03916016	    -10.02600324	     24.27499524	     24.27499524	     20.73050789	    -12.37788136	      0.53412662	     -8.07970834	      8.45590011	      2.58318820	     -6.01937698	    -11.13944085	     -9.13324876	     24.83339412	     46.52084782	      0.00000000	      0.00000000	     17.66587453	    -13.57584803	     -8.92915684	     74.34977414	     47.56945605	      0.00000000	      0.00000000
     26.53914286	     -3.55192039	     -5.98414267	     -3.95334757	      0.89243600	      0.92218335	      0.49096526	     20.50028818	      4.48865667	    -11.13545349	     20.18442355	     20.18442355	      5.33941341	     -5.10490271	     -2.94264961	      0.98087515	     -8.80042560	     -9.44359156	     27.44973186	     27.44973186	     19.92056175	    -13.61496269	     -0.12775991	     -8.18006335	      8.61888744	      2.53693056	     -4.71222618	    -11.15635889	     -9.01913637	     25.30099130	     46.50454215	      0.00000000	      0.00000000	     16.90848302	    -13.22098313	     -8.76720209	     73.12614629	     47.53511228	      0.00000000	      0.00000000
     26.55157143	     -3.45551495	     -6.15547832	     -3.72516191	      0.89250489	      0.92287587	      0.49362582	     19.83977105	      4.83472469	    -11.05088021	     20.09217967	     20.09217967	      5.73257859	     -5.50518323	     -3.25045854	      2.29166275	     -9.52563149	     -8.85989319	     30.78301371	     30.78301371	     17.78170317	    -15.32436301	     -3.00004515	     -8.11811075	      8.75622521	      2.68238204	     -3.55717200	    -11.27222616	     -8.19098956	     25.95912522	     46.42481441	      0.00000000	      0.00000000	     16.66507343	    -12.48188842	     -8.71488800	     70.19448975	     47.49689806	      0.00000000	      0.00000000
